<mxfile host="app.diagrams.net" modified="2023-07-02T16:05:47.812Z" agent="Mozilla/5.0 (Macintosh; Intel Mac OS X 10_15_7) AppleWebKit/537.36 (KHTML, like Gecko) Chrome/114.0.0.0 Safari/537.36" etag="4oksB_xxqFGtP8UPLC2O" version="21.5.2" type="github">
  <diagram name="第 1 页" id="w1Cc88vs5JHp7GIrNoAV">
    <mxGraphModel dx="2117" dy="853" grid="1" gridSize="10" guides="1" tooltips="1" connect="1" arrows="1" fold="1" page="1" pageScale="1" pageWidth="827" pageHeight="1169" math="0" shadow="0">
      <root>
        <mxCell id="0" />
        <mxCell id="1" parent="0" />
        <mxCell id="UVmC8r4gz9gDrw4pk4Nm-38" value="" style="rounded=0;whiteSpace=wrap;html=1;" vertex="1" parent="1">
          <mxGeometry x="233" y="10" width="997" height="440" as="geometry" />
        </mxCell>
        <mxCell id="UVmC8r4gz9gDrw4pk4Nm-1" value="前端（app、web、小程序）" style="rounded=1;whiteSpace=wrap;html=1;fillColor=#ffe6cc;strokeColor=#d79b00;" vertex="1" parent="1">
          <mxGeometry x="-10" y="50" width="70" height="360" as="geometry" />
        </mxCell>
        <mxCell id="UVmC8r4gz9gDrw4pk4Nm-2" value="API网关" style="rounded=0;whiteSpace=wrap;html=1;fillColor=#b0e3e6;strokeColor=#0e8088;" vertex="1" parent="1">
          <mxGeometry x="120" y="45" width="70" height="360" as="geometry" />
        </mxCell>
        <mxCell id="UVmC8r4gz9gDrw4pk4Nm-3" value="" style="rounded=0;whiteSpace=wrap;html=1;fillColor=#f8cecc;strokeColor=#b85450;" vertex="1" parent="1">
          <mxGeometry x="260" y="50" width="150" height="360" as="geometry" />
        </mxCell>
        <mxCell id="UVmC8r4gz9gDrw4pk4Nm-4" value="用户接口表示层&lt;br&gt;Presentation" style="text;html=1;strokeColor=none;fillColor=none;align=center;verticalAlign=middle;whiteSpace=wrap;rounded=0;" vertex="1" parent="1">
          <mxGeometry x="292.5" y="70" width="87.5" height="30" as="geometry" />
        </mxCell>
        <mxCell id="UVmC8r4gz9gDrw4pk4Nm-5" value="数据装配&lt;br&gt;" style="rounded=0;whiteSpace=wrap;html=1;rotation=0;" vertex="1" parent="1">
          <mxGeometry x="280" y="115" width="25" height="255" as="geometry" />
        </mxCell>
        <mxCell id="UVmC8r4gz9gDrw4pk4Nm-6" value="数据传输dto" style="rounded=0;whiteSpace=wrap;html=1;rotation=0;" vertex="1" parent="1">
          <mxGeometry x="320" y="115" width="25" height="255" as="geometry" />
        </mxCell>
        <mxCell id="UVmC8r4gz9gDrw4pk4Nm-7" value="门面接口rest&lt;br&gt;ws" style="rounded=0;whiteSpace=wrap;html=1;rotation=0;" vertex="1" parent="1">
          <mxGeometry x="360" y="115" width="25" height="255" as="geometry" />
        </mxCell>
        <mxCell id="UVmC8r4gz9gDrw4pk4Nm-8" value="" style="rounded=0;whiteSpace=wrap;html=1;fillColor=#d5e8d4;strokeColor=#82b366;" vertex="1" parent="1">
          <mxGeometry x="440" y="50" width="150" height="360" as="geometry" />
        </mxCell>
        <mxCell id="UVmC8r4gz9gDrw4pk4Nm-9" value="应用层&lt;br&gt;Application" style="text;html=1;strokeColor=none;fillColor=none;align=center;verticalAlign=middle;whiteSpace=wrap;rounded=0;" vertex="1" parent="1">
          <mxGeometry x="472.5" y="70" width="80" height="30" as="geometry" />
        </mxCell>
        <mxCell id="UVmC8r4gz9gDrw4pk4Nm-10" value="应用事件处理" style="rounded=0;whiteSpace=wrap;html=1;rotation=0;" vertex="1" parent="1">
          <mxGeometry x="460" y="115" width="25" height="255" as="geometry" />
        </mxCell>
        <mxCell id="UVmC8r4gz9gDrw4pk4Nm-11" value="应用事件发布" style="rounded=0;whiteSpace=wrap;html=1;rotation=0;" vertex="1" parent="1">
          <mxGeometry x="500" y="115" width="25" height="255" as="geometry" />
        </mxCell>
        <mxCell id="UVmC8r4gz9gDrw4pk4Nm-12" value="应用服务" style="rounded=0;whiteSpace=wrap;html=1;rotation=0;" vertex="1" parent="1">
          <mxGeometry x="540" y="115" width="25" height="255" as="geometry" />
        </mxCell>
        <mxCell id="UVmC8r4gz9gDrw4pk4Nm-14" value="" style="rounded=0;whiteSpace=wrap;html=1;fillColor=#e1d5e7;strokeColor=#9673a6;" vertex="1" parent="1">
          <mxGeometry x="630" y="50" width="300" height="360" as="geometry" />
        </mxCell>
        <mxCell id="UVmC8r4gz9gDrw4pk4Nm-15" value="领域层&lt;br&gt;Domain" style="text;html=1;strokeColor=none;fillColor=none;align=center;verticalAlign=middle;whiteSpace=wrap;rounded=0;" vertex="1" parent="1">
          <mxGeometry x="640" y="60" width="60" height="30" as="geometry" />
        </mxCell>
        <mxCell id="UVmC8r4gz9gDrw4pk4Nm-16" value="领域服务" style="whiteSpace=wrap;html=1;aspect=fixed;" vertex="1" parent="1">
          <mxGeometry x="650" y="140" width="80" height="80" as="geometry" />
        </mxCell>
        <mxCell id="UVmC8r4gz9gDrw4pk4Nm-18" value="实体值对象方法" style="rounded=0;whiteSpace=wrap;html=1;" vertex="1" parent="1">
          <mxGeometry x="770" y="100" width="90" height="60" as="geometry" />
        </mxCell>
        <mxCell id="UVmC8r4gz9gDrw4pk4Nm-19" value="实体值对象方法" style="rounded=0;whiteSpace=wrap;html=1;" vertex="1" parent="1">
          <mxGeometry x="770" y="198" width="90" height="60" as="geometry" />
        </mxCell>
        <mxCell id="UVmC8r4gz9gDrw4pk4Nm-20" value="仓储接口" style="rounded=0;whiteSpace=wrap;html=1;" vertex="1" parent="1">
          <mxGeometry x="880" y="95" width="30" height="270" as="geometry" />
        </mxCell>
        <mxCell id="UVmC8r4gz9gDrw4pk4Nm-21" value="实体值对象方法" style="rounded=0;whiteSpace=wrap;html=1;" vertex="1" parent="1">
          <mxGeometry x="770" y="290" width="90" height="60" as="geometry" />
        </mxCell>
        <mxCell id="UVmC8r4gz9gDrw4pk4Nm-22" value="领域事件" style="whiteSpace=wrap;html=1;aspect=fixed;" vertex="1" parent="1">
          <mxGeometry x="650" y="270" width="80" height="80" as="geometry" />
        </mxCell>
        <mxCell id="UVmC8r4gz9gDrw4pk4Nm-23" value="" style="rounded=0;whiteSpace=wrap;html=1;fillColor=#fa6800;fontColor=#000000;strokeColor=#C73500;" vertex="1" parent="1">
          <mxGeometry x="970" y="45" width="210" height="365" as="geometry" />
        </mxCell>
        <mxCell id="UVmC8r4gz9gDrw4pk4Nm-24" value="仓储实现" style="rounded=0;whiteSpace=wrap;html=1;" vertex="1" parent="1">
          <mxGeometry x="990" y="95" width="30" height="270" as="geometry" />
        </mxCell>
        <mxCell id="UVmC8r4gz9gDrw4pk4Nm-25" value="mysql" style="strokeWidth=1;html=1;shape=mxgraph.flowchart.database;whiteSpace=wrap;" vertex="1" parent="1">
          <mxGeometry x="1080" y="90" width="60" height="70" as="geometry" />
        </mxCell>
        <mxCell id="UVmC8r4gz9gDrw4pk4Nm-27" value="mongo" style="strokeWidth=1;html=1;shape=mxgraph.flowchart.database;whiteSpace=wrap;" vertex="1" parent="1">
          <mxGeometry x="1080" y="180" width="60" height="72" as="geometry" />
        </mxCell>
        <mxCell id="UVmC8r4gz9gDrw4pk4Nm-31" value="文件" style="strokeWidth=1;html=1;shape=mxgraph.flowchart.multi-document;whiteSpace=wrap;" vertex="1" parent="1">
          <mxGeometry x="1075" y="270" width="70" height="50" as="geometry" />
        </mxCell>
        <mxCell id="UVmC8r4gz9gDrw4pk4Nm-32" value="缓存" style="strokeWidth=1;html=1;shape=mxgraph.flowchart.decision;whiteSpace=wrap;" vertex="1" parent="1">
          <mxGeometry x="1075" y="330" width="70" height="60" as="geometry" />
        </mxCell>
        <mxCell id="UVmC8r4gz9gDrw4pk4Nm-33" value="消息队列" style="strokeWidth=1;html=1;shape=mxgraph.flowchart.direct_data;whiteSpace=wrap;" vertex="1" parent="1">
          <mxGeometry x="334" y="470" width="80" height="30" as="geometry" />
        </mxCell>
        <mxCell id="UVmC8r4gz9gDrw4pk4Nm-35" value="消息队列" style="strokeWidth=1;html=1;shape=mxgraph.flowchart.direct_data;whiteSpace=wrap;" vertex="1" parent="1">
          <mxGeometry x="399" y="470" width="80" height="30" as="geometry" />
        </mxCell>
        <mxCell id="UVmC8r4gz9gDrw4pk4Nm-36" value="消息队列" style="strokeWidth=1;html=1;shape=mxgraph.flowchart.direct_data;whiteSpace=wrap;" vertex="1" parent="1">
          <mxGeometry x="460" y="470" width="80" height="30" as="geometry" />
        </mxCell>
        <mxCell id="UVmC8r4gz9gDrw4pk4Nm-37" value="" style="rounded=0;whiteSpace=wrap;html=1;" vertex="1" parent="1">
          <mxGeometry x="220" y="590" width="720" height="330" as="geometry" />
        </mxCell>
        <mxCell id="UVmC8r4gz9gDrw4pk4Nm-39" value="xxx微服务应用" style="text;html=1;strokeColor=none;fillColor=none;align=center;verticalAlign=middle;whiteSpace=wrap;rounded=0;" vertex="1" parent="1">
          <mxGeometry x="220" y="585" width="100" height="30" as="geometry" />
        </mxCell>
        <mxCell id="UVmC8r4gz9gDrw4pk4Nm-40" value="" style="endArrow=classic;html=1;rounded=0;" edge="1" parent="1">
          <mxGeometry width="50" height="50" relative="1" as="geometry">
            <mxPoint x="60" y="220" as="sourcePoint" />
            <mxPoint x="120" y="220" as="targetPoint" />
          </mxGeometry>
        </mxCell>
        <mxCell id="UVmC8r4gz9gDrw4pk4Nm-43" value="" style="endArrow=classic;html=1;rounded=0;entryX=0;entryY=0.5;entryDx=0;entryDy=0;exitX=0.993;exitY=0.354;exitDx=0;exitDy=0;exitPerimeter=0;" edge="1" parent="1" source="UVmC8r4gz9gDrw4pk4Nm-12" target="UVmC8r4gz9gDrw4pk4Nm-16">
          <mxGeometry width="50" height="50" relative="1" as="geometry">
            <mxPoint x="560" y="180" as="sourcePoint" />
            <mxPoint x="500" y="270" as="targetPoint" />
          </mxGeometry>
        </mxCell>
        <mxCell id="UVmC8r4gz9gDrw4pk4Nm-44" style="edgeStyle=orthogonalEdgeStyle;rounded=0;orthogonalLoop=1;jettySize=auto;html=1;exitX=1;exitY=0.5;exitDx=0;exitDy=0;entryX=-0.028;entryY=0.417;entryDx=0;entryDy=0;entryPerimeter=0;" edge="1" parent="1" source="UVmC8r4gz9gDrw4pk4Nm-2" target="UVmC8r4gz9gDrw4pk4Nm-5">
          <mxGeometry relative="1" as="geometry" />
        </mxCell>
        <mxCell id="UVmC8r4gz9gDrw4pk4Nm-46" value="" style="endArrow=classic;html=1;rounded=0;entryX=0;entryY=0.5;entryDx=0;entryDy=0;exitX=1;exitY=0.5;exitDx=0;exitDy=0;" edge="1" parent="1" source="UVmC8r4gz9gDrw4pk4Nm-3" target="UVmC8r4gz9gDrw4pk4Nm-8">
          <mxGeometry width="50" height="50" relative="1" as="geometry">
            <mxPoint x="300" y="290" as="sourcePoint" />
            <mxPoint x="350" y="240" as="targetPoint" />
          </mxGeometry>
        </mxCell>
        <mxCell id="UVmC8r4gz9gDrw4pk4Nm-48" value="" style="endArrow=classic;html=1;rounded=0;entryX=0.664;entryY=-0.032;entryDx=0;entryDy=0;entryPerimeter=0;exitX=0.5;exitY=1;exitDx=0;exitDy=0;" edge="1" parent="1" source="UVmC8r4gz9gDrw4pk4Nm-11" target="UVmC8r4gz9gDrw4pk4Nm-36">
          <mxGeometry width="50" height="50" relative="1" as="geometry">
            <mxPoint x="540" y="350" as="sourcePoint" />
            <mxPoint x="590" y="300" as="targetPoint" />
          </mxGeometry>
        </mxCell>
        <mxCell id="UVmC8r4gz9gDrw4pk4Nm-49" value="" style="endArrow=classic;html=1;rounded=0;exitX=0.155;exitY=-0.124;exitDx=0;exitDy=0;exitPerimeter=0;entryX=0.5;entryY=1;entryDx=0;entryDy=0;" edge="1" parent="1" source="UVmC8r4gz9gDrw4pk4Nm-36" target="UVmC8r4gz9gDrw4pk4Nm-10">
          <mxGeometry width="50" height="50" relative="1" as="geometry">
            <mxPoint x="540" y="350" as="sourcePoint" />
            <mxPoint x="590" y="300" as="targetPoint" />
          </mxGeometry>
        </mxCell>
        <mxCell id="UVmC8r4gz9gDrw4pk4Nm-51" value="" style="endArrow=classic;startArrow=classic;html=1;rounded=0;entryX=0;entryY=0.75;entryDx=0;entryDy=0;exitX=0.91;exitY=0;exitDx=0;exitDy=0;exitPerimeter=0;" edge="1" parent="1" source="UVmC8r4gz9gDrw4pk4Nm-36" target="UVmC8r4gz9gDrw4pk4Nm-22">
          <mxGeometry width="50" height="50" relative="1" as="geometry">
            <mxPoint x="540" y="350" as="sourcePoint" />
            <mxPoint x="590" y="300" as="targetPoint" />
          </mxGeometry>
        </mxCell>
        <mxCell id="UVmC8r4gz9gDrw4pk4Nm-52" value="" style="endArrow=classic;html=1;rounded=0;exitX=1;exitY=0.5;exitDx=0;exitDy=0;" edge="1" parent="1" source="UVmC8r4gz9gDrw4pk4Nm-16" target="UVmC8r4gz9gDrw4pk4Nm-18">
          <mxGeometry width="50" height="50" relative="1" as="geometry">
            <mxPoint x="800" y="290" as="sourcePoint" />
            <mxPoint x="850" y="240" as="targetPoint" />
          </mxGeometry>
        </mxCell>
        <mxCell id="UVmC8r4gz9gDrw4pk4Nm-53" value="" style="endArrow=classic;html=1;rounded=0;exitX=1;exitY=0.75;exitDx=0;exitDy=0;entryX=0;entryY=0.5;entryDx=0;entryDy=0;" edge="1" parent="1" source="UVmC8r4gz9gDrw4pk4Nm-16" target="UVmC8r4gz9gDrw4pk4Nm-19">
          <mxGeometry width="50" height="50" relative="1" as="geometry">
            <mxPoint x="800" y="290" as="sourcePoint" />
            <mxPoint x="850" y="240" as="targetPoint" />
          </mxGeometry>
        </mxCell>
        <mxCell id="UVmC8r4gz9gDrw4pk4Nm-54" value="" style="endArrow=classic;html=1;rounded=0;entryX=0;entryY=0.5;entryDx=0;entryDy=0;" edge="1" parent="1" source="UVmC8r4gz9gDrw4pk4Nm-22" target="UVmC8r4gz9gDrw4pk4Nm-21">
          <mxGeometry width="50" height="50" relative="1" as="geometry">
            <mxPoint x="800" y="290" as="sourcePoint" />
            <mxPoint x="850" y="240" as="targetPoint" />
          </mxGeometry>
        </mxCell>
        <mxCell id="UVmC8r4gz9gDrw4pk4Nm-55" value="" style="endArrow=classic;html=1;rounded=0;entryX=0;entryY=0.5;entryDx=0;entryDy=0;exitX=1;exitY=0.5;exitDx=0;exitDy=0;" edge="1" parent="1" source="UVmC8r4gz9gDrw4pk4Nm-19" target="UVmC8r4gz9gDrw4pk4Nm-20">
          <mxGeometry width="50" height="50" relative="1" as="geometry">
            <mxPoint x="800" y="290" as="sourcePoint" />
            <mxPoint x="850" y="240" as="targetPoint" />
          </mxGeometry>
        </mxCell>
        <mxCell id="UVmC8r4gz9gDrw4pk4Nm-56" value="" style="endArrow=classic;html=1;rounded=0;entryX=0.069;entryY=0.113;entryDx=0;entryDy=0;entryPerimeter=0;" edge="1" parent="1" source="UVmC8r4gz9gDrw4pk4Nm-18" target="UVmC8r4gz9gDrw4pk4Nm-20">
          <mxGeometry width="50" height="50" relative="1" as="geometry">
            <mxPoint x="800" y="290" as="sourcePoint" />
            <mxPoint x="850" y="240" as="targetPoint" />
          </mxGeometry>
        </mxCell>
        <mxCell id="UVmC8r4gz9gDrw4pk4Nm-57" value="" style="endArrow=classic;html=1;rounded=0;entryX=0.046;entryY=0.809;entryDx=0;entryDy=0;entryPerimeter=0;exitX=1;exitY=0.5;exitDx=0;exitDy=0;" edge="1" parent="1" source="UVmC8r4gz9gDrw4pk4Nm-21" target="UVmC8r4gz9gDrw4pk4Nm-20">
          <mxGeometry width="50" height="50" relative="1" as="geometry">
            <mxPoint x="800" y="300" as="sourcePoint" />
            <mxPoint x="850" y="250" as="targetPoint" />
          </mxGeometry>
        </mxCell>
        <mxCell id="UVmC8r4gz9gDrw4pk4Nm-58" value="" style="endArrow=classic;html=1;rounded=0;exitX=1;exitY=0.5;exitDx=0;exitDy=0;" edge="1" parent="1" source="UVmC8r4gz9gDrw4pk4Nm-20" target="UVmC8r4gz9gDrw4pk4Nm-24">
          <mxGeometry width="50" height="50" relative="1" as="geometry">
            <mxPoint x="800" y="300" as="sourcePoint" />
            <mxPoint x="850" y="250" as="targetPoint" />
          </mxGeometry>
        </mxCell>
        <mxCell id="UVmC8r4gz9gDrw4pk4Nm-59" value="" style="endArrow=classic;html=1;rounded=0;exitX=1;exitY=0.154;exitDx=0;exitDy=0;exitPerimeter=0;" edge="1" parent="1" source="UVmC8r4gz9gDrw4pk4Nm-24" target="UVmC8r4gz9gDrw4pk4Nm-25">
          <mxGeometry width="50" height="50" relative="1" as="geometry">
            <mxPoint x="840" y="320" as="sourcePoint" />
            <mxPoint x="890" y="270" as="targetPoint" />
          </mxGeometry>
        </mxCell>
        <mxCell id="UVmC8r4gz9gDrw4pk4Nm-60" value="基础设施&lt;br&gt;Infrastructure" style="text;html=1;strokeColor=none;fillColor=none;align=center;verticalAlign=middle;whiteSpace=wrap;rounded=0;" vertex="1" parent="1">
          <mxGeometry x="990" y="50" width="60" height="30" as="geometry" />
        </mxCell>
        <mxCell id="UVmC8r4gz9gDrw4pk4Nm-61" value="" style="endArrow=classic;html=1;rounded=0;entryX=0;entryY=0.5;entryDx=0;entryDy=0;entryPerimeter=0;" edge="1" parent="1" target="UVmC8r4gz9gDrw4pk4Nm-27">
          <mxGeometry width="50" height="50" relative="1" as="geometry">
            <mxPoint x="1020" y="210" as="sourcePoint" />
            <mxPoint x="1070" y="160" as="targetPoint" />
          </mxGeometry>
        </mxCell>
        <mxCell id="UVmC8r4gz9gDrw4pk4Nm-62" value="" style="endArrow=classic;html=1;rounded=0;exitX=0.75;exitY=1;exitDx=0;exitDy=0;" edge="1" parent="1" source="UVmC8r4gz9gDrw4pk4Nm-8">
          <mxGeometry width="50" height="50" relative="1" as="geometry">
            <mxPoint x="553" y="417" as="sourcePoint" />
            <mxPoint x="1080" y="330" as="targetPoint" />
            <Array as="points">
              <mxPoint x="570" y="437" />
              <mxPoint x="1080" y="437.3" />
            </Array>
          </mxGeometry>
        </mxCell>
        <mxCell id="UVmC8r4gz9gDrw4pk4Nm-64" value="" style="rounded=0;whiteSpace=wrap;html=1;fillColor=#f8cecc;strokeColor=#b85450;" vertex="1" parent="1">
          <mxGeometry x="250" y="620" width="150" height="280" as="geometry" />
        </mxCell>
        <mxCell id="UVmC8r4gz9gDrw4pk4Nm-65" value="用户接口表示层&lt;br&gt;Presentation" style="text;html=1;strokeColor=none;fillColor=none;align=center;verticalAlign=middle;whiteSpace=wrap;rounded=0;" vertex="1" parent="1">
          <mxGeometry x="281.5" y="630" width="87.5" height="30" as="geometry" />
        </mxCell>
        <mxCell id="UVmC8r4gz9gDrw4pk4Nm-69" value="" style="rounded=0;whiteSpace=wrap;html=1;fillColor=#d5e8d4;strokeColor=#82b366;" vertex="1" parent="1">
          <mxGeometry x="425" y="620" width="135" height="280" as="geometry" />
        </mxCell>
        <mxCell id="UVmC8r4gz9gDrw4pk4Nm-70" value="应用层&lt;br&gt;Application" style="text;html=1;strokeColor=none;fillColor=none;align=center;verticalAlign=middle;whiteSpace=wrap;rounded=0;" vertex="1" parent="1">
          <mxGeometry x="457.5" y="640" width="80" height="30" as="geometry" />
        </mxCell>
        <mxCell id="UVmC8r4gz9gDrw4pk4Nm-72" value="" style="rounded=0;whiteSpace=wrap;html=1;fillColor=#e1d5e7;strokeColor=#9673a6;" vertex="1" parent="1">
          <mxGeometry x="590" y="620" width="150" height="280" as="geometry" />
        </mxCell>
        <mxCell id="UVmC8r4gz9gDrw4pk4Nm-73" value="领域层&lt;br&gt;Domain" style="text;html=1;strokeColor=none;fillColor=none;align=center;verticalAlign=middle;whiteSpace=wrap;rounded=0;" vertex="1" parent="1">
          <mxGeometry x="600" y="630" width="60" height="30" as="geometry" />
        </mxCell>
        <mxCell id="UVmC8r4gz9gDrw4pk4Nm-75" value="" style="rounded=0;whiteSpace=wrap;html=1;fillColor=#fa6800;fontColor=#000000;strokeColor=#C73500;" vertex="1" parent="1">
          <mxGeometry x="760" y="620" width="160" height="280" as="geometry" />
        </mxCell>
        <mxCell id="UVmC8r4gz9gDrw4pk4Nm-76" value="基础设施&lt;br&gt;Infrastructure" style="text;html=1;strokeColor=none;fillColor=none;align=center;verticalAlign=middle;whiteSpace=wrap;rounded=0;" vertex="1" parent="1">
          <mxGeometry x="780" y="625" width="60" height="30" as="geometry" />
        </mxCell>
        <mxCell id="UVmC8r4gz9gDrw4pk4Nm-77" value="" style="endArrow=classic;startArrow=classic;html=1;rounded=0;exitX=0.289;exitY=0.002;exitDx=0;exitDy=0;exitPerimeter=0;" edge="1" parent="1" source="UVmC8r4gz9gDrw4pk4Nm-37">
          <mxGeometry width="50" height="50" relative="1" as="geometry">
            <mxPoint x="380" y="540" as="sourcePoint" />
            <mxPoint x="430" y="490" as="targetPoint" />
          </mxGeometry>
        </mxCell>
      </root>
    </mxGraphModel>
  </diagram>
</mxfile>
